<svg width="640" height="640" xmlns="http://www.w3.org/2000/svg" xmlns:svg="http://www.w3.org/2000/svg">
 <!-- Created with SVG-edit - http://svg-edit.googlecode.com/ -->
 <title>Star</title>
 <g>
  <title>Layer 1</title>
  <g id="svg_2">
   <polygon stroke="#ff0000" id="svg_1" stroke-width="10" points="321.8904724121094,69 389.10552978515625,251.76588439941406 593.7809448242188,255.7081298828125 430.64666748046875,372.6058654785156 489.9280090332031,557.8081665039062 321.8904724121094,447.2891845703125 153.8529052734375,557.8081665039062 213.13427734375,372.6058654785156 50,255.7081298828125 254.67543029785156,251.76588439941406 321.8904724121094,69 389.10552978515625,251.76588439941406 " fill="#000000"/>
   <polygon stroke="#ffffff" id="svg_3" stroke-width="9" points="320.89044189453125,118.90943145751953 373.8907165527344,267.27642822265625 535.2809448242188,270.4766845703125 406.64666748046875,365.3727722167969 453.3910217285156,515.7176513671875 320.89044189453125,425.9996643066406 188.389892578125,515.7176513671875 235.13427734375,365.3727722167969 106.5,270.4766845703125 267.89019775390625,267.27642822265625 320.89044189453125,118.90943145751953 373.8907165527344,267.27642822265625 " fill="#000000"/>
   <polygon stroke="#ffffff" id="svg_4" stroke-width="8" points="322.3904113769531,162.409423828125 366.2438049316406,281.2382507324219 499.7809753417969,283.8013610839844 393.3466491699219,359.80474853515625 432.0237731933594,480.2176208496094 322.3904113769531,408.3614807128906 212.75714111328125,480.2176208496094 251.43426513671875,359.80474853515625 144.99998474121094,283.8013610839844 278.5370788574219,281.2382507324219 322.3904113769531,162.409423828125 366.2438049316406,281.2382507324219 " fill="#000000"/>
   <polygon stroke="#0a47ff" id="svg_5" stroke-width="8" points="323.8904113769531,203.40940856933594 357.9788818359375,294.5695495605469 461.7809753417969,296.5358581542969 379.046630859375,354.84228515625 409.1114196777344,447.2176208496094 323.8904113769531,392.09283447265625 238.66946411132812,447.2176208496094 268.7342529296875,354.84228515625 186,296.5358581542969 289.8020324707031,294.5695495605469 323.8904113769531,203.40940856933594 357.9788818359375,294.5695495605469 " fill="#000000"/>
   <polygon stroke="#0a47ff" id="svg_6" stroke-width="17" points="324.89044189453125,260.6533203125 345.7087097167969,313.5113830566406 409.1020812988281,314.65155029296875 358.5751037597656,348.4598083496094 376.9360656738281,402.0224914550781 324.89044189453125,370.05902099609375 272.84478759765625,402.0224914550781 291.205810546875,348.4598083496094 240.6788330078125,314.65155029296875 304.072265625,313.5113830566406 324.89044189453125,260.6533203125 345.7087097167969,313.5113830566406 " fill="#000000"/>
  </g>
 </g>
</svg>