<?xml version="1.0" encoding="UTF-8"?>
<svg xmlns="http://www.w3.org/2000/svg" xmlns:xlink="http://www.w3.org/1999/xlink" width="746.71pt" height="396.3pt" viewBox="0 0 746.71 396.3" version="1.1">
<defs>
<clipPath id="clip1">
  <path d="M 0 213 L 746.710938 213 L 746.710938 269 L 0 269 Z M 0 213 "/>
</clipPath>
<clipPath id="clip2">
  <path d="M 28 301 L 719 301 L 719 396.300781 L 28 396.300781 Z M 28 301 "/>
</clipPath>
</defs>
<g id="surface1">
<g clip-path="url(#clip1)" clip-rule="nonzero">
<path style=" stroke:none;fill-rule:nonzero;fill:rgb(13.699341%,12.199402%,12.5%);fill-opacity:1;" d="M 0 213.074219 C 0 213.074219 0 232.96875 0 237.933594 C 0 244.523438 4.414063 243.722656 5.761719 243.722656 C 71.171875 243.722656 735.464844 243.722656 740.878906 243.722656 C 740.878906 248.359375 740.878906 268.597656 740.878906 268.597656 L 746.65625 268.597656 L 746.65625 243.800781 C 746.65625 243.800781 747.648438 237.949219 740.789063 237.949219 C 674.71875 237.949219 11.1875 237.945313 5.777344 237.945313 C 5.777344 233.308594 5.777344 213.074219 5.777344 213.074219 L 0 213.074219 "/>
</g>
<g clip-path="url(#clip2)" clip-rule="nonzero">
<path style=" stroke:none;fill-rule:nonzero;fill:rgb(13.699341%,12.199402%,12.5%);fill-opacity:1;" d="M 695.867188 303.582031 L 674.839844 339.261719 L 653.632813 303.582031 L 631.164063 303.582031 L 664.527344 358.777344 L 664.527344 394.15625 L 684.457031 394.15625 L 684.449219 359.277344 L 718.070313 303.578125 Z M 600.683594 379.511719 C 582.78125 379.511719 576.070313 364.285156 576.046875 349.191406 C 576.023438 333.339844 582.730469 318.113281 600.644531 318.105469 C 618.546875 318.105469 625.257813 333.308594 625.292969 349.144531 C 625.3125 364.277344 618.5625 379.484375 600.683594 379.511719 Z M 600.628906 301.371094 C 572.605469 301.355469 556.101563 322.273438 556.121094 349.191406 C 556.144531 359.765625 558.882813 369.445313 563.941406 377.269531 L 530.179688 377.269531 L 530.15625 303.589844 L 510.261719 303.59375 L 510.265625 394.171875 L 568.058594 394.171875 L 568.058594 382.6875 C 575.675781 391.082031 586.753906 396.246094 600.6875 396.230469 C 628.71875 396.230469 645.199219 375.292969 645.171875 349.164063 C 645.183594 322.253906 628.660156 301.328125 600.628906 301.371094 Z M 472.71875 378.640625 L 451.394531 378.648438 L 451.378906 353.777344 L 473.082031 353.773438 C 481.570313 353.761719 487.429688 357.457031 487.410156 366.71875 C 487.410156 376.117188 480.550781 378.644531 472.71875 378.640625 Z M 451.375 319.007813 L 470.007813 319.007813 C 477.097656 319.023438 483.714844 320.789063 483.738281 329.414063 C 483.726563 337.042969 478.503906 340.226563 471.574219 340.210938 L 451.378906 340.222656 Z M 377.738281 359.164063 L 389.554688 325.917969 L 389.808594 325.917969 L 401.234375 359.164063 Z M 490.691406 344.910156 C 498.574219 341.09375 503 334.867188 503.023438 325.984375 C 503 309.128906 491.328125 303.535156 474.050781 303.601563 L 431.429688 303.601563 L 431.46875 387.453125 L 400.070313 303.585938 L 379.613281 303.585938 L 345.261719 394.179688 L 365.460938 394.179688 L 372.542969 374.007813 L 406.445313 374.007813 L 413.285156 394.15625 L 433.984375 394.148438 L 433.972656 394.15625 L 475.390625 394.171875 C 491.742188 394.132813 507.328125 386.226563 507.34375 367.835938 C 507.328125 356.542969 501.734375 348.058594 490.691406 344.910156 Z M 273.828125 359.078125 L 285.636719 325.847656 L 285.882813 325.847656 L 297.339844 359.066406 Z M 214.636719 380.792969 C 204.003906 380.8125 194.613281 376.105469 194.578125 364.097656 L 181.378906 364.082031 C 179.40625 346.269531 160.925781 342.4375 154.660156 340.867188 C 131.992188 335.042969 127.660156 334.136719 127.648438 327.183594 C 127.675781 319.558594 135.011719 316.890625 141.347656 316.90625 C 150.878906 316.910156 158.589844 319.664063 159.246094 330.574219 L 178.453125 330.574219 C 179.394531 346.15625 192.417969 351.140625 205.378906 354.53125 C 218.710938 358.078125 232.296875 359.722656 232.300781 369.496094 C 232.296875 378.75 221.65625 380.785156 214.636719 380.792969 Z M 60.621094 359.144531 L 72.421875 325.925781 L 72.6875 325.925781 L 84.109375 359.152344 Z M 275.722656 303.566406 L 251.570313 367.222656 C 251.535156 346.65625 231.269531 342.472656 224.660156 340.851563 C 201.953125 334.988281 197.640625 334.15625 197.632813 327.140625 C 197.640625 319.519531 205 316.867188 211.335938 316.875 C 220.871094 316.867188 228.597656 319.648438 229.242188 330.550781 L 248.519531 330.550781 C 248.496094 309.609375 231.121094 301.386719 212.234375 301.394531 C 196.058594 301.378906 178.832031 310.066406 178.398438 328.09375 C 177.046875 309.015625 160.363281 301.410156 142.199219 301.433594 C 125.871094 301.425781 108.367188 310.332031 108.378906 328.832031 C 108.378906 345.855469 121.953125 351.027344 135.398438 354.578125 C 148.730469 358.132813 162.304688 359.769531 162.285156 369.53125 C 162.296875 378.789063 151.652344 380.8125 144.6875 380.839844 C 134.011719 380.851563 124.644531 376.144531 124.628906 364.097656 L 105.585938 364.097656 L 82.910156 303.582031 L 62.515625 303.582031 L 28.195313 394.164063 L 48.34375 394.164063 L 55.441406 374 L 89.34375 373.992188 L 96.183594 394.164063 L 116.847656 394.164063 L 113.667969 385.691406 C 120.976563 392.929688 132.203125 396.320313 143.914063 396.300781 C 162.046875 396.3125 173.902344 389.535156 178.882813 379.316406 C 185.222656 390.953125 199.214844 396.285156 213.929688 396.269531 C 228.148438 396.269531 238.480469 392.089844 244.695313 385.367188 L 241.382813 394.148438 L 261.550781 394.148438 L 268.648438 373.914063 L 302.539063 373.90625 L 309.398438 394.175781 L 330.089844 394.171875 L 296.167969 303.566406 L 275.722656 303.566406 "/>
</g>
<path style=" stroke:none;fill-rule:nonzero;fill:rgb(0%,0%,0%);fill-opacity:1;" d="M 30.808594 102.039063 C 30.808594 78.6875 52.941406 57.035156 78.761719 57.035156 C 86.378906 57.035156 96.953125 59.003906 111.710938 70.5625 C 125.972656 58.765625 137.53125 57.535156 147.371094 57.535156 C 173.441406 57.535156 193.71875 81.71875 193.71875 102.304688 L 193.71875 174.503906 L 161.265625 174.503906 L 161.265625 111.210938 C 161.265625 98.847656 156.96875 89.511719 144.660156 89.511719 C 131.394531 89.511719 128.554688 99.578125 128.554688 112.300781 L 128.554688 174.503906 L 95.734375 174.503906 L 95.734375 109.171875 C 95.734375 95.648438 89.089844 89.015625 79.746094 89.015625 C 71.136719 89.015625 64.121094 94.414063 64.121094 109.527344 L 64.121094 174.503906 L 30.808594 174.503906 L 30.808594 102.039063 "/>
<path style=" stroke:none;fill-rule:nonzero;fill:rgb(0%,0%,0%);fill-opacity:1;" d="M 284.347656 131.34375 C 304.753906 131.34375 310.664063 113.101563 304.894531 98.890625 C 295.835938 76.484375 277.820313 59.734375 248.6875 59.734375 C 216.96875 59.734375 190.660156 87.285156 190.660156 117.0625 C 190.660156 148.519531 214.339844 176.066406 249.183594 176.066406 C 274.894531 176.066406 293.445313 163.039063 304.753906 137.289063 L 268.359375 137.289063 C 261.476563 143.613281 256.5625 145.316406 249.183594 145.316406 C 239.101563 145.316406 228.277344 138.1875 228.277344 131.34375 C 228.277344 131.34375 279.917969 131.34375 284.347656 131.34375 Z M 227.78125 106.730469 C 227.78125 102.039063 233.941406 91.480469 248.933594 91.480469 C 264.09375 91.480469 270.335938 101.070313 270.335938 106.730469 L 227.78125 106.730469 "/>
<path style=" stroke:none;fill-rule:nonzero;fill:rgb(0%,0%,0%);fill-opacity:1;" d="M 513.796875 131.34375 C 534.191406 131.34375 540.101563 113.101563 534.335938 98.890625 C 525.273438 76.484375 507.257813 59.734375 478.121094 59.734375 C 446.40625 59.734375 420.089844 87.285156 420.089844 117.0625 C 420.089844 148.519531 443.777344 176.066406 478.621094 176.066406 C 504.335938 176.066406 522.882813 163.039063 534.191406 137.289063 L 497.808594 137.289063 C 490.914063 143.613281 486.003906 145.316406 478.621094 145.316406 C 468.542969 145.316406 457.71875 138.1875 457.71875 131.34375 C 457.71875 131.34375 509.355469 131.34375 513.796875 131.34375 Z M 457.230469 106.730469 C 457.230469 102.039063 463.378906 91.480469 478.371094 91.480469 C 493.53125 91.480469 499.761719 101.070313 499.761719 106.730469 L 457.230469 106.730469 "/>
<path style=" stroke:none;fill-rule:nonzero;fill:rgb(0%,0%,0%);fill-opacity:1;" d="M 423.652344 111.871094 C 423.652344 75.488281 423.652344 -0.00390625 423.652344 -0.00390625 L 389.855469 -0.00390625 L 389.855469 70.324219 L 389.425781 70.324219 L 389.640625 70.324219 C 380.507813 61.230469 367.21875 60.496094 360.824219 60.496094 C 327.933594 60.496094 304.269531 87.546875 304.269531 117.605469 C 304.269531 151.480469 328.359375 176.804688 364.269531 176.804688 C 398.949219 176.804688 423.652344 148.28125 423.652344 111.871094 Z M 389.355469 119.265625 C 389.355469 134.992188 376.324219 144.585938 363.035156 144.585938 C 350.011719 144.585938 336.484375 133.761719 336.484375 118.769531 C 336.484375 105.238281 349.027344 92.210938 363.273438 92.210938 C 378.042969 92.210938 389.355469 105.003906 389.355469 119.265625 "/>
<path style=" stroke:none;fill-rule:nonzero;fill:rgb(0%,0%,0%);fill-opacity:1;" d="M 607.351563 93.0625 C 603.171875 93.0625 594.441406 93.207031 589.882813 93.207031 C 581.164063 93.207031 567.140625 101.59375 567.140625 118.03125 C 567.140625 134.019531 580.917969 142.878906 591.007813 142.878906 C 594.441406 142.878906 602.816406 142.878906 606.25 142.878906 L 606.25 174.835938 C 603.054688 174.835938 593.210938 174.601563 589.457031 174.601563 C 561.742188 174.601563 532.722656 152.214844 532.722656 115.570313 C 532.722656 86.550781 560.261719 60.992188 590.097656 60.992188 C 593.210938 60.992188 604.035156 61.464844 607.480469 61.464844 L 607.351563 93.0625 "/>
<path style=" stroke:none;fill-rule:nonzero;fill:rgb(0%,0%,0%);fill-opacity:1;" d="M 598.621094 119.996094 C 598.621094 149.015625 623.09375 177.300781 658.164063 177.300781 C 693.457031 177.300781 717.652344 148.519531 717.652344 118.03125 C 717.652344 89.25 693.457031 59.996094 658.164063 59.996094 C 623.09375 59.996094 598.621094 88.28125 598.621094 119.996094 Z M 631.820313 118.527344 C 631.820313 108.4375 639.199219 92.707031 658.621094 92.707031 C 670.929688 92.707031 684.941406 101.570313 684.941406 118.527344 C 684.941406 136.25 669.945313 145.582031 658.386719 145.582031 C 637.601563 145.582031 631.820313 127.628906 631.820313 118.527344 "/>
<path style=" stroke:none;fill-rule:nonzero;fill:rgb(0%,0%,0%);fill-opacity:1;" d="M 705.5625 62.886719 L 705.5625 58.976563 L 708.105469 58.976563 C 709.457031 58.976563 710.761719 59.355469 710.761719 60.921875 C 710.761719 62.839844 709.089844 62.886719 707.398438 62.886719 Z M 705.5625 64.046875 L 707.882813 64.046875 L 711.046875 69.070313 L 712.667969 69.070313 L 709.339844 64.046875 C 710.828125 63.785156 712.144531 62.914063 712.144531 60.921875 C 712.144531 58.90625 711.023438 57.820313 708.5 57.820313 L 704.1875 57.820313 L 704.1875 69.070313 L 705.5625 69.070313 Z M 707.71875 53.695313 C 702.207031 53.695313 697.980469 57.960938 697.980469 63.429688 C 697.980469 68.902344 702.207031 73.191406 707.71875 73.191406 C 713.1875 73.191406 717.429688 68.902344 717.429688 63.429688 C 717.429688 57.960938 713.1875 53.695313 707.71875 53.695313 Z M 707.71875 55.070313 C 712.40625 55.070313 715.9375 58.765625 715.9375 63.429688 C 715.9375 68.097656 712.40625 71.792969 707.71875 71.792969 C 703.003906 71.792969 699.484375 68.097656 699.484375 63.429688 C 699.484375 58.765625 703.003906 55.070313 707.71875 55.070313 "/>
</g>
</svg>
